<?xml version="1.0" standalone="no"?>
<!DOCTYPE svg PUBLIC "-//W3C//DTD SVG 20010904//EN"
 "http://www.w3.org/TR/2001/REC-SVG-20010904/DTD/svg10.dtd">
<svg version="1.0" xmlns="http://www.w3.org/2000/svg"
 width="1000.000000pt" height="1000.000000pt" viewBox="0 0 1000.000000 1000.000000"
 preserveAspectRatio="xMidYMid meet">
<metadata>
Created by potrace 1.11, written by Peter Selinger 2001-2013
</metadata>
<g transform="translate(0.000000,1000.000000) scale(0.100000,-0.100000)"
fill="#000000" stroke="none">
<path d="M5025 8190 c-646 -54 -1168 -269 -1453 -601 -218 -254 -338 -492
-389 -772 -24 -129 -21 -365 6 -517 55 -313 174 -539 415 -788 210 -217 368
-340 546 -424 89 -42 120 -64 120 -83 0 -6 -49 -69 -108 -141 -483 -578 -747
-940 -1295 -1774 -168 -256 -329 -492 -357 -525 -109 -129 -267 -237 -389
-265 -118 -28 -241 6 -336 92 -112 101 -161 118 -212 74 -25 -22 -28 -30 -26
-83 1 -33 10 -82 23 -113 53 -135 234 -353 357 -430 205 -130 462 -154 690
-64 200 79 434 271 638 524 73 91 941 1294 1190 1650 469 669 642 902 688 927
29 16 70 18 454 18 l423 0 27 -28 28 -27 3 -1157 c3 -1281 5 -1220 -62 -1299
-62 -72 -97 -81 -433 -110 -416 -35 -506 -61 -557 -159 -31 -60 -30 -186 3
-238 43 -70 130 -96 264 -78 155 21 682 41 1079 41 372 0 821 -17 1087 -40
136 -13 173 -7 211 32 59 58 80 221 40 304 -35 72 -91 88 -350 104 -310 20
-373 40 -419 139 l-26 56 0 2530 0 2530 23 43 c47 88 135 123 444 176 363 63
395 73 423 126 37 71 6 216 -51 238 -19 7 -177 12 -439 16 -387 5 -605 15
-1050 51 -588 47 -1011 63 -1230 45z m850 -374 c101 -18 190 -58 218 -97 18
-24 18 -70 17 -1188 0 -639 -3 -1175 -7 -1191 -3 -16 -16 -41 -28 -54 -43 -47
-81 -51 -495 -51 -407 0 -504 8 -710 56 -322 74 -562 221 -753 459 -157 197
-227 408 -227 685 0 268 64 477 215 705 76 115 298 332 428 419 226 149 466
237 742 270 120 14 492 6 600 -13z"/>
</g>
</svg>
